<svg id="Layer_1" data-name="Layer 1" xmlns="http://www.w3.org/2000/svg" viewBox="0 0 499.32 154.9"><defs><style>.cls-1{fill:#1c2366;}.cls-2{fill:#73b4d8;}.cls-3{fill:#dd1f4b;}.cls-4{fill:#fff;}</style></defs><polygon id="Triangle2_A" data-name="Triangle2 A" class="cls-1" points="177.92 0.82 133.44 77.86 88.96 154.9 44.48 77.86 0 0.82 88.96 0.82 177.92 0.82"/><polygon id="Triangle1_A" data-name="Triangle1 A" class="cls-1" points="236.79 0.82 192.31 77.86 147.83 154.9 103.35 77.86 58.87 0.82 147.83 0.82 236.79 0.82"/><polygon id="Triangle2_B" data-name="Triangle2 B" class="cls-2" points="296.17 0.41 251.69 77.45 207.21 154.49 162.73 77.45 118.25 0.41 207.21 0.41 296.17 0.41"/><polygon id="Triangle1_B" data-name="Triangle1 B" class="cls-2" points="355.04 0.41 310.56 77.45 266.08 154.49 221.6 77.45 177.12 0.41 266.08 0.41 355.04 0.41"/><rect id="Y_Leg" data-name="Y Leg" class="cls-3" x="303.13" y="68.35" width="52.39" height="86.36"/><polygon id="Triangle_Y" data-name="Triangle Y" class="cls-3" points="418.14 0.41 373.01 62.48 327.89 124.55 282.76 62.48 237.64 0.41 327.89 0.41 418.14 0.41"/><rect id="T_Leg" data-name="T Leg" class="cls-2" x="392.07" y="215" width="52.39" height="112.56" transform="translate(-0.71 -171.69) rotate(-0.18)"/><rect id="T_Hat" data-name="T Hat" class="cls-2" x="393.24" y="125.92" width="58.53" height="153.17" transform="translate(623.82 -393.64) rotate(89.82)"/><circle id="Dot_1" data-name="Dot 1" class="cls-4" cx="131.91" cy="87.46" r="10.23"/><ellipse id="Dot_2" data-name="Dot 2" class="cls-4" cx="206.98" cy="267.29" rx="14.21" ry="14.14" transform="matrix(0.13, -0.99, 0.99, 0.13, -83.97, 266.2)"/><circle id="Dot_3" data-name="Dot 3" class="cls-4" cx="281.63" cy="71.06" r="15.55"/><path id="Cloud" class="cls-4" d="M394,202.52a15.45,15.45,0,0,0-14.41-21,15.34,15.34,0,0,0-8.57,2.6,25.92,25.92,0,0,0-12.13-10.81H338.58A25.73,25.73,0,0,0,323,197c0,.44,0,.87,0,1.31a23.16,23.16,0,0,0,7.69,45h59.17A20.58,20.58,0,0,0,394,202.52Z" transform="translate(0.13 -173)"/></svg>